<?xml version="1.0" standalone="no"?>
<!DOCTYPE svg PUBLIC "-//W3C//DTD SVG 20010904//EN"
 "http://www.w3.org/TR/2001/REC-SVG-20010904/DTD/svg10.dtd">
<svg version="1.0" xmlns="http://www.w3.org/2000/svg"
 width="1024.000000pt" height="717.000000pt" viewBox="0 0 1024.000000 717.000000"
 preserveAspectRatio="xMidYMid meet">

<g transform="translate(0.000000,717.000000) scale(0.100000,-0.100000)"
fill="#000000" stroke="none">
<path d="M2316 6462 c-11 -18 -17 -97 -8 -110 5 -7 39 -15 80 -19 40 -3 72
-10 72 -14 0 -4 -23 -99 -50 -211 -28 -112 -54 -230 -57 -264 -5 -58 -4 -61
18 -67 31 -9 172 -9 194 -1 8 4 22 19 30 34 13 25 97 335 129 475 l11 50 97 3
97 3 11 37 c14 52 13 69 -7 77 -29 13 -609 19 -617 7z"/>
<path d="M7822 6378 c-5 -7 -17 -29 -25 -49 -19 -47 -30 -49 -342 -49 -137 0
-255 -4 -261 -8 -6 -4 -22 -50 -37 -102 -42 -153 -97 -370 -97 -386 0 -11 22
-14 124 -14 l123 0 37 132 c21 72 44 144 52 159 20 40 57 56 144 65 47 4 85
14 101 25 36 26 88 29 103 7 8 -14 5 -37 -13 -105 -74 -268 -59 -288 217 -286
90 0 167 5 172 9 4 5 11 28 15 52 l7 42 -64 0 c-34 0 -74 6 -88 13 -22 12 -25
18 -22 65 3 59 44 188 66 210 9 9 43 17 90 20 83 5 99 15 111 70 l7 32 -92 0
-92 0 7 55 6 55 -119 0 c-84 0 -123 -4 -130 -12z"/>
<path d="M3717 6283 c-148 -4 -148 -4 -157 -29 -26 -67 -3 -77 172 -78 95 -1
141 -5 150 -13 27 -28 -9 -38 -155 -43 -184 -7 -223 -23 -263 -108 -31 -65
-43 -166 -25 -201 7 -12 23 -26 35 -31 13 -5 149 -10 302 -11 l277 -2 10 24
c23 63 78 269 88 331 24 157 -15 172 -434 161z m143 -293 c0 -24 -30 -79 -51
-94 -43 -30 -119 -9 -119 33 0 18 34 54 60 64 27 10 110 7 110 -3z"/>
<path d="M4411 6280 l-144 -5 -14 -40 c-21 -58 -113 -422 -113 -445 0 -19 7
-20 104 -20 57 0 112 3 121 6 24 9 40 49 64 154 34 149 49 186 87 220 36 31
62 37 95 20 27 -15 25 -64 -11 -195 -34 -125 -38 -190 -14 -199 9 -3 61 -6
117 -6 l102 0 43 163 c53 200 56 265 14 307 -51 51 -86 54 -451 40z"/>
<path d="M5800 6282 c-97 -4 -96 -3 -125 -95 -34 -103 -130 -486 -139 -549 -7
-44 -5 -48 16 -53 13 -3 68 -5 123 -3 l100 3 24 93 24 92 146 0 c80 0 161 4
180 10 69 20 104 71 147 221 36 125 38 208 5 243 -13 14 -38 28 -55 31 -34 6
-359 12 -446 7z m256 -124 c11 -11 11 -25 -2 -86 -8 -40 -23 -98 -32 -130
l-18 -57 -72 -3 c-84 -3 -82 -9 -52 115 24 101 45 154 68 171 20 16 89 10 108
-10z"/>
<path d="M8443 6280 c-69 -10 -123 -38 -149 -77 -28 -42 -84 -267 -84 -337 0
-47 4 -57 26 -75 26 -20 39 -21 310 -21 l284 0 0 49 0 48 -137 7 c-154 8 -208
18 -217 42 -14 36 10 42 187 46 189 6 229 15 246 56 43 113 41 226 -6 250 -24
13 -394 23 -460 12z m212 -122 c36 -16 34 -53 -5 -73 -54 -28 -120 -13 -120
27 0 50 64 74 125 46z"/>
<path d="M9220 6278 c-108 -11 -158 -39 -193 -108 -26 -53 -50 -179 -39 -208
9 -24 51 -32 161 -32 101 0 171 -12 171 -29 0 -21 -61 -32 -160 -31 -174 3
-179 2 -205 -25 -14 -13 -25 -36 -25 -50 l0 -26 258 3 c253 3 258 3 302 28 54
30 86 87 102 183 13 77 6 112 -25 129 -12 6 -78 14 -147 18 -69 3 -132 10
-139 15 -30 18 29 29 177 33 152 4 154 5 163 29 15 41 10 52 -28 62 -48 13
-274 18 -373 9z"/>
<path d="M3013 6273 c-18 -4 -27 -18 -43 -71 -25 -85 -87 -334 -96 -389 l-6
-41 77 -7 c92 -9 148 5 172 41 9 14 29 75 45 137 15 62 36 123 46 137 25 33
73 49 149 49 56 1 64 4 79 27 10 14 19 46 22 72 l4 47 -213 1 c-118 0 -224 -1
-236 -3z"/>
<path d="M5096 6270 c-72 -22 -147 -146 -150 -246 -2 -83 8 -88 169 -94 138
-6 173 -16 147 -42 -9 -9 -65 -15 -177 -18 -98 -3 -168 -9 -175 -16 -6 -6 -13
-27 -17 -47 l-6 -37 249 0 c274 0 299 5 356 66 66 71 84 231 32 275 -11 9 -61
16 -150 20 -74 3 -137 9 -141 13 -21 20 27 31 173 36 139 4 157 7 170 24 8 11
14 32 14 48 l0 28 -232 -1 c-128 0 -246 -5 -262 -9z"/>
<path d="M6496 6270 c-16 -5 -39 -19 -51 -30 -53 -50 -115 -245 -115 -361 0
-62 2 -70 24 -84 42 -28 204 -39 396 -28 l173 10 27 30 c34 38 83 163 104 265
28 137 19 181 -41 197 -45 13 -475 13 -517 1z m298 -176 c-1 -46 -8 -77 -31
-127 -35 -74 -56 -89 -116 -85 l-42 3 1 60 c0 33 11 95 24 138 l23 78 71 -3
71 -3 -1 -61z"/>
<path d="M3690 5539 c-47 -10 -203 -41 -347 -69 -145 -28 -300 -62 -345 -76
-103 -32 -219 -92 -278 -143 -47 -40 -107 -117 -98 -126 2 -3 44 22 92 56 178
124 412 203 719 244 65 8 131 15 148 15 l29 0 -23 -47 c-94 -188 -127 -365
-162 -858 -15 -212 -36 -399 -54 -477 -5 -21 -8 -38 -6 -38 2 0 14 19 28 43
59 102 82 198 147 618 45 292 61 376 96 497 34 118 74 213 123 296 36 62 43
88 23 85 -4 -1 -45 -9 -92 -20z"/>
<path d="M5952 5258 c-82 -303 -143 -556 -140 -582 3 -30 4 -31 68 -37 36 -4
153 -7 261 -8 217 -1 222 0 235 67 6 28 3 33 -22 43 -16 6 -80 13 -141 16 -62
3 -113 10 -113 14 0 5 25 105 55 223 30 118 58 241 61 274 l7 59 -33 6 c-18 4
-74 7 -124 7 l-92 0 -22 -82z"/>
<path d="M7389 5311 c-21 -22 -29 -39 -29 -65 0 -49 22 -59 132 -54 109 4 128
19 128 99 l0 49 -101 0 c-98 0 -101 -1 -130 -29z"/>
<path d="M3981 5270 c-76 -105 -181 -364 -267 -656 -57 -195 -122 -470 -130
-551 -7 -62 -7 -62 22 -69 78 -20 1083 18 2649 101 956 50 1249 59 1810 51
629 -8 797 -19 1123 -73 148 -25 164 -26 178 -11 20 20 11 54 -19 70 -14 8
-80 12 -187 13 -91 1 -239 9 -330 18 -596 57 -1564 47 -3440 -38 -734 -33
-1093 -45 -1417 -45 l-273 0 0 33 c0 91 169 658 266 896 58 139 79 252 55 290
-7 10 -16 4 -40 -29z"/>
<path d="M6571 5137 c-29 -36 -101 -307 -101 -384 0 -40 5 -58 23 -79 30 -35
87 -40 388 -36 l226 3 43 162 c51 197 81 330 74 336 -8 8 -181 14 -208 7 -34
-8 -59 -66 -101 -231 -19 -77 -41 -145 -49 -153 -8 -8 -35 -17 -62 -20 -38 -4
-50 -1 -61 13 -20 28 -16 61 22 191 39 131 44 188 19 198 -32 12 -201 7 -213
-7z"/>
<path d="M7326 5099 c-14 -30 -48 -151 -77 -269 -67 -269 -65 -267 -198 -279
-80 -7 -98 -12 -113 -31 -38 -47 -17 -78 58 -86 68 -8 323 11 356 27 36 16 52
42 92 147 56 146 146 515 131 531 -2 2 -54 6 -114 9 l-111 5 -24 -54z"/>
<path d="M7661 5113 c-17 -59 -5 -64 158 -72 86 -4 145 -11 152 -18 20 -20
-24 -30 -162 -36 -77 -3 -140 -12 -162 -21 -46 -19 -82 -73 -103 -156 -22 -82
-14 -133 24 -158 27 -18 24 -17 337 -15 50 0 125 0 168 0 43 0 82 4 87 9 5 5
25 65 46 134 30 103 36 143 38 224 1 97 1 99 -27 120 -27 20 -41 21 -287 24
l-259 3 -10 -38z m299 -268 c0 -34 -25 -82 -49 -95 -28 -14 -63 -12 -89 6 -26
18 -28 46 -5 85 16 27 21 29 80 29 61 0 63 -1 63 -25z"/>
<path d="M8336 5143 c-17 -5 -18 -12 -12 -74 6 -64 64 -421 69 -425 1 0 63 -4
139 -7 l136 -7 145 223 c80 122 150 232 157 245 16 32 -2 52 -49 52 -30 0 -40
-6 -57 -33 -12 -17 -56 -85 -98 -150 -43 -65 -85 -121 -93 -124 -32 -12 -45
28 -68 211 -4 32 -15 57 -30 72 -22 22 -31 24 -122 23 -54 -1 -106 -3 -117 -6z"/>
<path d="M2765 5083 c-106 -7 -278 -35 -343 -55 -230 -70 -369 -217 -476 -501
-13 -35 -33 -82 -44 -104 l-21 -41 -168 -32 c-513 -97 -673 -175 -728 -354
-27 -88 -14 -268 26 -361 12 -27 14 -19 20 96 15 298 74 381 324 462 118 39
404 97 475 97 29 0 27 -21 -15 -220 -9 -43 12 -3 50 96 20 51 48 103 63 117
35 34 79 43 324 67 112 12 229 25 261 31 152 26 265 84 344 173 48 55 124 196
147 275 31 104 13 93 -51 -32 -82 -162 -236 -288 -413 -342 -79 -23 -242 -44
-414 -52 l-149 -6 7 29 c4 16 29 74 55 129 165 343 362 458 866 507 90 8 121
14 100 19 -31 7 -153 8 -240 2z"/>
<path d="M7426 4060 c-433 -49 -637 -191 -694 -483 l-17 -86 -50 -5 c-27 -3
-243 -15 -480 -26 -511 -24 -777 -39 -782 -44 -13 -12 304 -16 807 -10 l586 7
12 76 c16 103 77 225 146 294 99 98 239 161 431 193 117 20 437 24 800 10 127
-5 228 -6 225 -3 -3 3 -70 15 -150 26 -318 45 -688 67 -834 51z"/>
<path d="M2240 3983 c-201 -20 -286 -39 -385 -88 -135 -65 -214 -173 -258
-352 -26 -106 -2 -94 -225 -114 -73 -7 -131 -13 -129 -15 6 -6 254 -34 327
-36 41 -2 82 1 90 5 11 5 23 -9 49 -59 104 -201 337 -291 548 -212 64 23 161
94 204 149 l31 40 -65 -41 c-198 -125 -416 -115 -567 26 -73 68 -105 140 -104
234 0 85 22 146 77 214 44 54 51 66 37 66 -7 0 -45 -32 -86 -72 -41 -39 -76
-69 -79 -66 -11 11 130 138 185 167 92 49 243 64 575 58 149 -3 358 -13 465
-23 221 -19 805 -25 880 -8 40 9 24 11 -137 22 -100 7 -357 30 -570 52 -545
55 -732 66 -863 53z m-563 -435 c-2 -13 -4 -5 -4 17 -1 22 1 32 4 23 2 -10 2
-28 0 -40z"/>
<path d="M4290 3955 c-97 -22 -181 -68 -252 -138 -69 -67 -91 -105 -141 -242
l-32 -90 -45 -8 c-72 -14 -1075 0 -1135 15 -55 14 -45 -2 -104 172 -26 77
-108 144 -200 165 l-41 9 69 -68 c67 -65 109 -131 126 -195 4 -16 10 -70 14
-120 l6 -90 33 1 c17 0 334 1 702 2 l670 2 0 68 c1 128 33 212 118 303 69 76
164 123 286 146 159 29 309 -7 441 -106 76 -56 80 -58 59 -22 -45 77 -150 155
-253 187 -69 22 -243 27 -321 9z"/>
<path d="M4124 3736 c-33 -29 -73 -78 -89 -107 -27 -49 -30 -62 -30 -149 0
-86 3 -101 32 -162 121 -256 475 -311 696 -108 32 29 56 55 53 57 -2 2 -48
-16 -102 -41 -58 -26 -122 -47 -154 -51 -115 -14 -264 33 -349 110 -22 20 -55
67 -73 102 -27 55 -32 77 -32 132 1 81 30 161 80 220 20 23 34 44 32 46 -3 3
-31 -19 -64 -49z"/>
<path d="M7908 3755 c-92 -72 -138 -165 -138 -280 0 -168 111 -313 279 -366
92 -29 216 -29 293 1 67 25 166 94 197 139 l22 31 -93 -45 c-117 -57 -195 -72
-292 -56 -138 22 -242 95 -298 208 -27 56 -32 77 -32 137 0 80 21 136 79 217
19 27 33 49 32 49 -2 0 -24 -16 -49 -35z"/>
<path d="M6980 3723 c-93 -106 -126 -212 -100 -324 37 -160 165 -274 340 -305
160 -27 291 18 410 141 l45 47 -88 -45 c-138 -71 -251 -82 -382 -37 -99 34
-182 104 -227 190 -19 36 -23 61 -23 127 0 78 2 86 47 172 26 50 43 91 38 91
-5 0 -31 -26 -60 -57z"/>
<path d="M1860 2200 c-102 -18 -106 -51 -25 -186 29 -48 16 -66 -44 -58 -59 8
-77 -9 -40 -38 19 -16 32 -18 68 -13 56 8 96 28 105 52 5 12 -7 45 -33 96 -23
43 -41 83 -41 88 0 5 10 9 23 9 40 0 68 12 65 28 -4 20 -36 30 -78 22z"/>
<path d="M2630 2171 c-22 -23 -54 -68 -72 -101 -34 -62 -48 -74 -48 -40 0 84
-45 170 -89 170 -31 0 -49 -36 -66 -139 -19 -105 -13 -174 11 -150 14 15 54
156 54 193 0 42 18 -1 29 -71 13 -81 28 -123 47 -123 17 0 70 63 98 118 14 26
32 56 41 67 16 19 16 18 11 -20 -19 -123 -19 -165 -3 -165 24 0 44 45 63 148
28 146 -2 191 -76 113z"/>
<path d="M3361 2202 c-33 -7 -36 -10 -53 -77 -27 -106 -34 -195 -17 -206 18
-11 120 -11 138 0 20 13 4 31 -28 31 -15 0 -36 6 -47 14 -26 20 -11 44 50 75
50 27 47 41 -12 41 -30 0 -32 2 -26 28 10 42 23 52 70 52 42 0 64 14 48 30
-13 13 -83 19 -123 12z"/>
<path d="M4095 2153 c-37 -135 -50 -167 -77 -186 -24 -18 -31 -19 -54 -8 -26
12 -27 13 -19 79 13 120 12 156 -6 160 -27 5 -58 -99 -59 -195 0 -59 19 -87
66 -99 32 -8 93 9 127 37 43 33 92 224 66 255 -20 24 -28 16 -44 -43z"/>
<path d="M7499 2182 c-34 -88 -57 -230 -43 -266 12 -31 23 -15 49 67 35 108
44 211 21 220 -12 5 -20 -1 -27 -21z"/>
<path d="M2015 2148 c-35 -120 -44 -237 -18 -245 17 -6 63 146 70 230 6 63 5
67 -15 67 -17 0 -24 -11 -37 -52z"/>
<path d="M2163 2192 c-15 -10 -49 -138 -59 -221 l-7 -61 67 0 c73 0 119 15 95
31 -8 5 -31 9 -51 9 -37 0 -38 1 -38 39 0 37 1 38 41 44 73 10 77 46 5 47 -27
0 -28 2 -22 32 7 36 20 48 54 48 30 0 64 18 57 31 -7 11 -125 12 -142 1z"/>
<path d="M2800 2181 c-16 -32 -40 -143 -40 -193 0 -88 20 -102 51 -34 15 36
27 47 57 56 87 29 134 85 117 141 -15 46 -163 70 -185 30z m94 -31 c15 -5 26
-17 26 -28 0 -29 -29 -62 -56 -62 -20 0 -24 5 -24 31 0 27 15 69 25 69 2 0 15
-4 29 -10z"/>
<path d="M3041 2122 c-12 -44 -24 -111 -28 -147 -6 -62 -5 -67 13 -63 11 2 30
24 44 53 14 28 30 50 35 49 6 0 22 -27 38 -58 20 -41 32 -56 45 -54 22 4 28
50 13 100 -10 33 -9 40 14 74 51 75 24 114 -83 122 l-69 4 -22 -80z m123 22
c20 -19 20 -23 -1 -46 -23 -26 -63 -24 -63 3 0 28 18 59 35 59 7 0 21 -7 29
-16z"/>
<path d="M3707 2182 c-67 -45 -101 -135 -77 -206 25 -77 115 -102 168 -48 l27
27 -58 3 c-48 3 -60 7 -73 28 -14 21 -15 30 -4 69 15 54 72 110 101 101 11 -3
28 -9 39 -12 16 -5 20 -2 20 19 0 14 -7 28 -16 31 -32 12 -100 6 -127 -12z"/>
<path d="M4220 2163 c-21 -77 -41 -192 -38 -219 8 -71 49 -17 63 83 4 28 12
59 19 69 11 14 15 5 25 -62 7 -43 17 -87 22 -96 25 -47 80 1 145 125 20 38 37
67 39 65 1 -2 -5 -44 -13 -94 -9 -49 -12 -99 -8 -110 7 -18 8 -18 27 4 26 33
49 114 56 200 l6 72 -33 0 c-40 0 -85 -44 -133 -131 -17 -32 -35 -59 -38 -59
-3 0 -11 33 -18 73 -22 124 -18 117 -67 117 -41 0 -43 -2 -54 -37z"/>
<path d="M4639 2173 c-38 -100 -50 -258 -20 -258 7 0 23 20 35 44 18 39 28 47
75 63 74 25 91 42 91 92 0 23 -4 46 -8 53 -12 19 -60 33 -113 33 -45 0 -50 -3
-60 -27z m111 -31 c22 -18 22 -19 6 -51 -14 -26 -22 -32 -44 -29 -31 3 -39 29
-23 71 12 32 30 34 61 9z"/>
<path d="M4895 2168 c-14 -36 -42 -162 -47 -218 l-3 -35 65 -3 c67 -2 98 7 86
27 -4 6 -17 11 -29 11 -54 1 -60 26 -32 138 13 54 14 75 5 91 -15 30 -29 26
-45 -11z"/>
<path d="M5100 2175 c-18 -48 -40 -144 -46 -203 -6 -51 -4 -60 11 -66 11 -4
22 -1 26 6 11 18 49 180 56 240 5 44 4 48 -16 48 -14 0 -25 -9 -31 -25z"/>
<path d="M5230 2179 c-12 -22 -60 -223 -60 -251 0 -15 10 -18 66 -18 104 0
139 32 49 46 -37 5 -45 10 -45 28 0 31 10 41 58 54 23 7 42 17 42 21 0 12 -26
21 -56 21 -22 0 -24 3 -18 28 9 37 13 41 67 51 27 5 51 12 55 15 13 14 -25 26
-85 26 -53 0 -64 -3 -73 -21z"/>
<path d="M5466 2177 c-16 -24 -40 -120 -51 -203 -5 -38 -3 -53 8 -63 21 -17
27 -5 53 104 16 67 23 85 29 70 31 -79 76 -166 90 -171 37 -15 68 46 91 179
10 60 12 93 5 100 -21 21 -39 -3 -56 -75 -9 -40 -19 -82 -22 -92 -4 -13 -14 3
-33 53 -36 91 -55 121 -80 121 -11 0 -26 -10 -34 -23z"/>
<path d="M5782 2192 c-13 -9 -62 -208 -62 -254 0 -27 1 -28 58 -28 82 0 128
16 171 59 70 70 60 174 -19 213 -36 18 -125 24 -148 10z m131 -63 c21 -27 22
-61 1 -106 -21 -43 -54 -65 -91 -61 -38 4 -41 38 -13 130 l21 70 32 -6 c18 -3
40 -16 50 -27z"/>
<path d="M6091 2153 c-101 -105 -85 -231 31 -250 44 -7 83 13 132 67 43 48 56
77 56 130 0 63 -33 92 -109 98 l-62 4 -48 -49z m136 -19 c21 -21 25 -32 20
-65 -7 -56 -50 -109 -88 -109 -16 0 -38 9 -50 21 -18 18 -20 30 -16 67 4 37
12 53 41 79 43 40 59 41 93 7z"/>
<path d="M6501 2173 c-13 -32 -51 -216 -51 -246 0 -19 4 -20 88 -14 l87 6 42
44 c23 24 47 62 53 85 11 35 10 45 -6 78 -25 49 -73 74 -145 74 -52 0 -57 -2
-68 -27z m119 -28 c35 -18 46 -52 31 -97 -26 -78 -112 -121 -127 -63 -11 44
32 175 57 175 5 0 23 -7 39 -15z"/>
<path d="M6811 2186 c-14 -17 -47 -144 -56 -220 l-8 -59 73 6 c73 6 103 18 80
32 -6 4 -27 7 -46 8 -30 1 -34 4 -34 26 0 37 10 47 52 55 63 12 59 45 -5 46
-27 0 -28 2 -22 33 8 36 20 47 53 47 30 0 64 18 57 31 -10 15 -131 11 -144 -5z"/>
<path d="M7050 2183 c-53 -36 -53 -59 0 -137 56 -83 55 -91 -20 -87 -19 1 -42
-3 -50 -8 -13 -9 -13 -12 1 -26 27 -27 79 -29 129 -3 65 33 67 72 5 149 -46
58 -45 76 3 84 55 10 64 14 60 28 -7 20 -99 21 -128 0z"/>
<path d="M7237 2193 c-18 -17 -5 -33 28 -33 19 0 35 -3 35 -7 -1 -5 -7 -37
-15 -73 -19 -86 -20 -170 -1 -170 24 0 34 23 56 138 l23 112 31 0 c17 0 38 4
46 10 11 7 9 11 -13 19 -31 12 -180 15 -190 4z"/>
<path d="M7611 2138 c-31 -95 -47 -206 -32 -221 21 -20 48 25 62 103 7 39 15
73 19 75 3 2 18 -30 33 -70 39 -104 91 -143 116 -89 45 99 55 302 13 251 -11
-13 -36 -103 -45 -157 -4 -28 -5 -27 -38 64 -24 66 -57 106 -88 106 -15 0 -24
-14 -40 -62z"/>
<path d="M7984 2181 c-55 -25 -85 -75 -91 -155 -5 -60 -4 -63 27 -89 61 -52
175 -26 222 51 85 138 -14 258 -158 193z m113 -53 c32 -26 7 -106 -47 -151
-26 -23 -34 -25 -60 -15 -55 19 -53 103 4 163 31 32 36 34 62 25 16 -6 34 -16
41 -22z"/>
<path d="M8263 2180 c-45 -27 -43 -58 8 -137 34 -52 39 -66 29 -78 -9 -11 -23
-14 -46 -9 -36 7 -74 -2 -74 -17 0 -6 17 -17 37 -25 30 -13 44 -14 79 -4 52
15 84 43 84 73 0 13 -20 52 -45 87 -25 35 -42 67 -38 71 5 4 28 11 53 16 64
12 61 37 -5 41 -36 2 -59 -3 -82 -18z"/>
<path d="M8432 1958 c-16 -16 -15 -33 3 -48 20 -17 47 5 43 34 -4 24 -28 32
-46 14z"/>
</g>
</svg>
